# xmcd CD database file
#
# Track frame offsets:
#	150
#	23065
#	47070
#	83547
#	101557
#	153730
#	175295
#	207975
#	225285
#
# Disc length: 3435 seconds
#
# Revision: 0
# Processed by: cddbd v1.5.2PL0 Copyright (c) Steve Scherf et al.
# Submitted via: CDex 1.51
#
DISCID=650d6909
DTITLE=Harold McKinney and Wendell Harrison - Something for Pops
DYEAR=1993
DGENRE=Jazz
TTITLE0=Chroma II
TTITLE1=Like, What Is This?
TTITLE2=Rampart Street
TTITLE3=Festivities
TTITLE4=Armstrong Park
TTITLE5=Threes and Fours
TTITLE6=Stitch In Time
TTITLE7=Sir Oliver
TTITLE8=Pops
EXTD=YEAR: 1993
EXTT0=
EXTT1=
EXTT2=
EXTT3=
EXTT4=
EXTT5=
EXTT6=
EXTT7=
EXTT8=
PLAYORDER=
